<svg
    xmlns="http://www.w3.org/2000/svg"
    viewBox="0 0 24 24"
    fill="currentColor"
    className="w-5 h-5 text-[#6A0DAD] mr-2"
>
    <path
        fillRule="evenodd"
        d="M12 2c.37 0 .73.13 1.01.36l5.48 4.57A1.5 1.5 0 0 1 19 7.99V12c0 5.25-3.99 9.76-8.97 10.95a.75.75 0 0 1-.56 0C4.99 21.76 1 17.25 1 12V7.99c0-.5.25-.97.66-1.26l5.48-4.57A1.5 1.5 0 0 1 12 2zm-1 11.59L8.47 11a.75.75 0 1 0-1.06 1.06l2.83 2.83a.75.75 0 0 0 1.06 0l5.66-5.66a.75.75 0 0 0-1.06-1.06L11 13.59z"
        clipRule="evenodd"
    />
</svg>
